<?xml version="1.0" encoding="UTF-8"?>
<svg width="79px" height="80px" viewBox="0 0 79 80" version="1.1" xmlns="http://www.w3.org/2000/svg" xmlns:xlink="http://www.w3.org/1999/xlink">
    <!-- Generator: Sketch 47.1 (45422) - http://www.bohemiancoding.com/sketch -->
    <title>Group 5</title>
    <desc>Created with Sketch.</desc>
    <defs>
        <polygon id="path-1" points="18.9690062 0.0960055402 0.007125 0.0960055402 0.007125 42.8811247 37.9308875 42.8811247 37.9308875 0.0960055402 18.9690062 0.0960055402"></polygon>
    </defs>
    <g id="Page-1" stroke="none" stroke-width="1" fill="none" fill-rule="evenodd">
        <g id="Group-5" transform="translate(0.000000, -1.000000)">
            <g id="Page-1-Copy-7">
                <g id="Group-3" transform="translate(0.000000, 0.914895)">
                    <path d="M19.6458271,74.337075 C0.859894915,63.403425 -5.57659661,39.183075 5.2691661,20.242575 C16.1149288,1.300725 40.1362847,-5.188725 58.9235559,5.747625 C77.7094881,16.682625 84.1459797,40.902975 73.3002169,59.843475 C62.4517763,78.783975 38.4317593,85.273425 19.6458271,74.337075 Z" id="Fill-1" fill="#000000"></path>
                    <path d="M21.9714577,70.2759031 C5.41015197,60.6370138 -0.264131462,39.284833 9.29727811,22.5872634 C18.8586877,5.88850367 40.0354392,0.167533092 56.5979254,9.80880262 C73.1592311,19.448882 78.8335145,40.8010628 69.2721049,57.4986324 C59.7083345,74.196202 38.5327634,79.9171726 21.9714577,70.2759031 Z" id="Fill-1" fill="#FFFFFF"></path>
                </g>
            </g>
            <g id="engineering" transform="translate(22.000000, 19.000000)">
                <g id="Group-4">
                    <mask id="mask-2" fill="white">
                        <use xlink:href="#path-1"></use>
                    </mask>
                    <g id="Clip-2"></g>
                    <path d="M11.4087875,21.8886676 C11.2594,21.7389418 11.0344875,21.6942742 10.8391437,21.7751524 C10.6439187,21.856626 10.5167375,22.0473269 10.5167375,22.2595873 L10.5167375,31.5606898 C10.5167375,31.8500166 10.7505563,32.0850277 11.0391187,32.0850277 L20.3118312,32.0850277 C20.523325,32.0850277 20.7140375,31.9570997 20.7946687,31.7611579 C20.8758937,31.5653352 20.8308875,31.3400914 20.6815,31.1902465 L11.4087875,21.8886676 Z M11.5618562,31.0367091 L11.5618562,23.5246925 L19.0505875,31.0367091 L11.5618562,31.0367091 Z" id="Fill-1" fill="#000000" mask="url(#mask-2)"></path>
                    <path d="M37.7778187,3.32469806 L35.0609375,0.599498615 C34.8568062,0.394742382 34.5260875,0.395218837 34.3219562,0.599498615 L18.6210687,16.3485762 C18.5709562,16.3988421 18.5315312,16.4592327 18.50505,16.5253407 L16.784125,20.8600028 L9.85898125,13.9131801 L11.1017,12.6667756 C11.3058312,12.4620194 11.3058312,12.1302881 11.1017,11.9255319 C10.8976875,11.7207756 10.56685,11.7207756 10.3628375,11.9255319 L9.12011875,13.1720554 L7.0354625,11.0810166 L7.0354625,0.61998615 C7.0354625,0.330540166 6.80116875,0.0960055402 6.512725,0.0960055402 L0.5222625,0.0960055402 C0.23381875,0.0960055402 0,0.330540166 0,0.61998615 L0,42.3566676 C0,42.6461136 0.23381875,42.8811247 0.5222625,42.8811247 L6.512725,42.8811247 C6.80116875,42.8811247 7.0354625,42.6461136 7.0354625,42.3566676 L7.0354625,36.6252798 L31.0239125,36.6252798 L32.4827562,38.08859 C32.5847625,38.1910277 32.7183562,38.2421274 32.852425,38.2421274 C32.9860187,38.2421274 33.1196125,38.1910277 33.2217375,38.08859 C33.42575,37.8839529 33.42575,37.5521025 33.2217375,37.3474654 L17.5791562,21.6574681 L21.9005875,19.9312742 C21.966375,19.9047119 22.0267,19.8651662 22.0768125,19.8149003 L37.7778187,4.06594183 C37.8756687,3.96767313 37.9308875,3.83414681 37.9308875,3.69549861 C37.9308875,3.55637396 37.8756687,3.42284765 37.7778187,3.32469806 Z M5.99034375,41.8328061 L1.04511875,41.8328061 L1.04511875,40.8999086 L1.94263125,40.8999086 C2.23119375,40.8999086 2.4650125,40.665374 2.4650125,40.375928 C2.4650125,40.0866011 2.23119375,39.8520665 1.94263125,39.8520665 L1.04511875,39.8520665 L1.04511875,38.2017479 L1.94263125,38.2017479 C2.23119375,38.2017479 2.4650125,37.9672133 2.4650125,37.6777673 C2.4650125,37.3883213 2.23119375,37.1534294 1.94263125,37.1534294 L1.04511875,37.1534294 L1.04511875,35.5034681 L1.94263125,35.5034681 C2.23119375,35.5034681 2.4650125,35.2689335 2.4650125,34.9796066 C2.4650125,34.6901607 2.23119375,34.455626 1.94263125,34.455626 L1.04511875,34.455626 L1.04511875,32.8053075 L1.94263125,32.8053075 C2.23119375,32.8053075 2.4650125,32.5707729 2.4650125,32.2813269 C2.4650125,31.992 2.23119375,31.7569889 1.94263125,31.7569889 L1.04511875,31.7569889 L1.04511875,30.1071468 L1.94263125,30.1071468 C2.23119375,30.1071468 2.4650125,29.8726122 2.4650125,29.5831662 C2.4650125,29.2937202 2.23119375,29.0593047 1.94263125,29.0593047 L1.04511875,29.0593047 L1.04511875,27.408867 L1.94263125,27.408867 C2.23119375,27.408867 2.4650125,27.1743324 2.4650125,26.8850055 C2.4650125,26.5955596 2.23119375,26.3605485 1.94263125,26.3605485 L1.04511875,26.3605485 L1.04511875,24.7107064 L1.94263125,24.7107064 C2.23119375,24.7107064 2.4650125,24.4761717 2.4650125,24.1867258 C2.4650125,23.8973989 2.23119375,23.6623878 1.94263125,23.6623878 L1.04511875,23.6623878 L1.04511875,22.0124266 L1.94263125,22.0124266 C2.23119375,22.0124266 2.4650125,21.7780111 2.4650125,21.4885651 C2.4650125,21.1991191 2.23119375,20.9642271 1.94263125,20.9642271 L1.04511875,20.9642271 L1.04511875,19.3142659 L1.94263125,19.3142659 C2.23119375,19.3142659 2.4650125,19.0797313 2.4650125,18.7904044 C2.4650125,18.5009584 2.23119375,18.2659474 1.94263125,18.2659474 L1.04511875,18.2659474 L1.04511875,16.6161053 L1.94263125,16.6161053 C2.23119375,16.6161053 2.4650125,16.3815706 2.4650125,16.0921247 C2.4650125,15.8027978 2.23119375,15.5677867 1.94263125,15.5677867 L1.04511875,15.5677867 L1.04511875,13.9178255 L1.94263125,13.9178255 C2.23119375,13.9178255 2.4650125,13.68341 2.4650125,13.393964 C2.4650125,13.104518 2.23119375,12.869626 1.94263125,12.869626 L1.04511875,12.869626 L1.04511875,11.2196648 L1.94263125,11.2196648 C2.23119375,11.2196648 2.4650125,10.9851302 2.4650125,10.6958033 C2.4650125,10.4063573 2.23119375,10.1713463 1.94263125,10.1713463 L1.04511875,10.1713463 L1.04511875,8.52150416 L1.94263125,8.52150416 C2.23119375,8.52150416 2.4650125,8.28696953 2.4650125,7.99752355 C2.4650125,7.70772022 2.23119375,7.4731856 1.94263125,7.4731856 L1.04511875,7.4731856 L1.04511875,5.82322438 L1.94263125,5.82322438 C2.23119375,5.82322438 2.4650125,5.58880886 2.4650125,5.29936288 C2.4650125,5.0099169 2.23119375,4.77502493 1.94263125,4.77502493 L1.04511875,4.77502493 L1.04511875,3.12506371 L1.94263125,3.12506371 C2.23119375,3.12506371 2.4650125,2.89052909 2.4650125,2.60120222 C2.4650125,2.31127978 2.23119375,2.07674515 1.94263125,2.07674515 L1.04511875,2.07674515 L1.04511875,1.1443241 L5.99034375,1.1443241 L5.99034375,41.8328061 Z M7.0349875,35.5769612 L7.0349875,12.563385 L9.5779,15.1137258 L8.09126875,16.6049086 C7.8871375,16.8096648 7.8871375,17.1413961 8.09126875,17.3461524 C8.193275,17.4484709 8.32686875,17.4996898 8.4609375,17.4996898 C8.59453125,17.4996898 8.728125,17.4484709 8.83013125,17.3461524 L10.3168812,15.8548504 L11.480275,17.0218061 L9.993525,18.513108 C9.7895125,18.7177452 9.7895125,19.0494765 9.993525,19.2542327 C10.09565,19.3566704 10.2292437,19.4077701 10.3628375,19.4077701 C10.4969062,19.4077701 10.6305,19.3566704 10.7325062,19.2542327 L12.2191375,17.7630499 L13.3820562,18.9295291 L11.895425,20.4207119 C11.6912937,20.6254681 11.6912937,20.9571994 11.895425,21.1619557 C11.9974312,21.2642742 12.131025,21.3154931 12.2650937,21.3154931 C12.3986875,21.3154931 12.5322812,21.2642742 12.6344062,21.1619557 L14.1210375,19.6706537 L15.2844312,20.8376094 L13.7976812,22.3289114 C13.5936687,22.5335485 13.5936687,22.8653989 13.7976812,23.070036 C13.8998062,23.1724737 14.0334,23.2235734 14.1669937,23.2235734 C14.3010625,23.2235734 14.4346562,23.1724737 14.5366625,23.070036 L16.0234125,21.5788532 L17.1863312,22.7453324 L15.6995812,24.2365152 C15.49545,24.4412715 15.49545,24.7730028 15.6995812,24.977759 C15.8015875,25.0800776 15.9351812,25.1312964 16.06925,25.1312964 C16.2028437,25.1312964 16.3364375,25.0800776 16.4385625,24.977759 L17.9251937,23.4864571 L19.0885875,24.6534127 L17.6019562,26.1447147 C17.397825,26.3494709 17.397825,26.6812022 17.6019562,26.8859584 C17.7039625,26.988277 17.8375562,27.0394958 17.97115,27.0394958 C18.1052187,27.0394958 18.2388125,26.988277 18.3408187,26.8859584 L19.8275687,25.3946565 L20.9904875,26.5611357 L19.5037375,28.0524377 C19.2996062,28.2570748 19.2996062,28.5888061 19.5037375,28.7935623 C19.6058625,28.896 19.7394562,28.9470997 19.8734062,28.9470997 C20.007,28.9470997 20.1405937,28.896 20.2427187,28.7935623 L21.72935,27.3023795 L22.8927437,28.4693352 L21.4061125,29.960518 C21.2019812,30.1652742 21.2019812,30.4970055 21.4061125,30.7017618 C21.5081187,30.8040803 21.6417125,30.8552992 21.7753062,30.8552992 C21.9089,30.8552992 22.0429687,30.8040803 22.144975,30.7017618 L23.631725,29.2104598 L24.7946437,30.3769391 L23.3078937,31.868241 C23.1038812,32.0728781 23.1038812,32.4047285 23.3078937,32.6093657 C23.4100187,32.7118033 23.5436125,32.762903 23.6776812,32.762903 C23.811275,32.762903 23.9448687,32.7118033 24.046875,32.6093657 L25.533625,31.1181828 L26.6969,32.2851385 L25.2102687,33.7763213 C25.0061375,33.9810776 25.0061375,34.3128089 25.2102687,34.5175651 C25.312275,34.6198837 25.4458687,34.6711025 25.5794625,34.6711025 C25.7135312,34.6711025 25.847125,34.6198837 25.94925,34.5175651 L27.4358812,33.0262632 L29.9783187,35.5764848 L7.0349875,35.5764848 L7.0349875,35.5769612 Z M21.0878625,18.0816787 L34.0803,5.04993906 L34.6995813,5.67111634 L21.7076187,18.702856 L21.0878625,18.0816787 Z M20.3488813,17.340554 L19.7297188,16.7193767 L32.7216812,3.68716066 L33.3414375,4.3088144 L20.3488813,17.340554 Z M19.1822812,17.6527507 L20.7766187,19.2519695 L18.127425,20.3100554 L19.1822812,17.6527507 Z M35.4385625,4.92987258 L33.4605437,2.9459169 L34.6917437,1.71154294 L36.6691687,3.69549861 L35.4385625,4.92987258 Z" id="Fill-3" fill="#000000" mask="url(#mask-2)"></path>
                </g>
                <path d="M35.0072065,38.1728584 C34.7767312,37.9423805 34.4033318,37.9423805 34.1728565,38.1728584 C33.9423812,38.4032022 33.9423812,38.7767399 34.1728565,39.0070837 L35.9927935,40.8271751 C36.1080981,40.942347 36.2589328,41 36.4103037,41 C36.5611383,41 36.7119729,40.942347 36.8271435,40.8271751 C37.0576188,40.5966972 37.0576188,40.2232936 36.8271435,39.9928157 L35.0072065,38.1728584 Z" id="Fill-5" fill="#000000"></path>
                <path d="M37.8270772,42.1420153 C37.6377131,41.9526616 37.330919,41.9526616 37.1415549,42.1420153 C36.9527416,42.3313689 36.9527416,42.6385867 37.1419956,42.8274998 L37.1726199,42.8580123 C37.2672469,42.952634 37.3911762,43 37.5151056,43 C37.6394756,43 37.763405,42.9521934 37.858032,42.8575717 C38.0473961,42.668218 38.0473961,42.3614408 37.8575913,42.1725277 L37.8270772,42.1420153 Z" id="Fill-6" fill="#000000"></path>
                <path d="M20.4630122,2 C20.5814364,2 20.7002816,1.95473803 20.790705,1.86431936 L20.8642859,1.79032131 C21.045238,1.60979974 21.045238,1.31622852 20.8642859,1.13570696 C20.6833338,0.954764348 20.3901682,0.954764348 20.2093213,1.13570696 L20.1356351,1.20970501 C19.9547883,1.39022657 19.9547883,1.68379779 20.1356351,1.86431936 C20.2261638,1.95473803 20.344588,2 20.4630122,2 Z" id="Fill-7" fill="#000000"></path>
                <path d="M18.5901271,6 C18.7409348,6 18.8917424,5.94234701 19.0070265,5.82717512 L20.8271744,4.0072178 C21.0576085,3.77673992 21.0576085,3.40333628 20.8271744,3.1728584 C20.5967403,2.94238053 20.2234076,2.94238053 19.9929735,3.1728584 L18.1728256,4.99281572 C17.9423915,5.22329359 17.9423915,5.59669724 18.1728256,5.82717512 C18.2881097,5.94234701 18.4393195,6 18.5901271,6 Z" id="Fill-8" fill="#000000"></path>
                <path d="M14.5901469,9 C14.7409596,9 14.8917723,8.94247916 15.0070603,8.82716932 L16.8272692,7.007151 C17.0575769,6.7766654 17.0575769,6.40324923 16.8272692,6.17276364 C16.5968273,5.94241212 16.2234821,5.94241212 15.9930403,6.17276364 L14.1728314,7.99291604 C13.9423895,8.22326756 13.9423895,8.59681781 14.1728314,8.82716932 C14.2879853,8.94247916 14.4393342,9 14.5901469,9 Z" id="Fill-9" fill="#000000"></path>
                <path d="M11.5901535,12 C11.7409679,12 11.8917823,11.942347 12.0069375,11.8271751 L13.8271667,10.0070837 C14.0576111,9.77673992 14.0576111,9.4032022 13.8271667,9.1728584 C13.5968564,8.94238053 13.2229707,8.94238053 12.9930625,9.1728584 L11.1728333,10.993352 C10.9423889,11.2232936 10.9423889,11.5972336 11.1728333,11.8275773 C11.2879885,11.942347 11.4393391,12 11.5901535,12 Z" id="Fill-10" fill="#000000"></path>
            </g>
        </g>
    </g>
</svg>