<?xml version="1.0" encoding="UTF-8"?>
<svg width="13px" height="13px" viewBox="0 0 13 13" version="1.1" xmlns="http://www.w3.org/2000/svg" xmlns:xlink="http://www.w3.org/1999/xlink">
    <!-- Generator: Sketch 47.1 (45422) - http://www.bohemiancoding.com/sketch -->
    <title>7H</title>
    <desc>Created with Sketch.</desc>
    <defs></defs>
    <g id="Page-1" stroke="none" stroke-width="1" fill="none" fill-rule="evenodd">
        <path d="M1.13207547,9.41509434 L7.42641509,3.09811321 L9.04150943,4.71698113 L2.73962264,11.0226415 L1.13207547,11.0226415 L1.13207547,9.41509434 Z M9.1509434,1.36603774 L10.7735849,2.98867925 L9.84528302,3.91698113 L8.22641509,2.29811321 L9.1509434,1.36603774 Z M2.97358491,12.154717 C3.1245283,12.154717 3.26792453,12.0943396 3.37358491,11.9886792 L11.9735849,3.38867925 C12.0792453,3.28301887 12.1396226,3.13584906 12.1396226,2.98867925 C12.1396226,2.83773585 12.0792453,2.69433962 11.9735849,2.58867925 L9.5509434,0.166037736 C9.44528302,0.0603773585 9.30188679,0 9.1509434,0 C9,0 8.85660377,0.0603773585 8.7509434,0.166037736 L0.166037736,8.78113208 C0.0603773585,8.89056604 -3.26849658e-13,9.03396226 -3.26849658e-13,9.18113208 L-3.26849658e-13,11.5886792 C-3.26849658e-13,11.9018868 0.252830189,12.154717 0.566037736,12.154717 L2.97358491,12.154717 Z" id="7H" fill="#416C7D"></path>
    </g>
</svg>