<?xml version="1.0" encoding="UTF-8"?>
<svg width="79px" height="80px" viewBox="0 0 79 80" version="1.1" xmlns="http://www.w3.org/2000/svg" xmlns:xlink="http://www.w3.org/1999/xlink">
    <!-- Generator: Sketch 47.1 (45422) - http://www.bohemiancoding.com/sketch -->
    <title>Group 12</title>
    <desc>Created with Sketch.</desc>
    <defs></defs>
    <g id="Page-1" stroke="none" stroke-width="1" fill="none" fill-rule="evenodd">
        <g id="Group-12" transform="translate(0.000000, -1.000000)">
            <g id="Group-7">
                <g id="Group-3" transform="translate(0.000000, 0.914895)">
                    <path d="M19.6458271,74.337075 C0.859894915,63.403425 -5.57659661,39.183075 5.2691661,20.242575 C16.1149288,1.300725 40.1362847,-5.188725 58.9235559,5.747625 C77.7094881,16.682625 84.1459797,40.902975 73.3002169,59.843475 C62.4517763,78.783975 38.4317593,85.273425 19.6458271,74.337075 Z" id="Fill-1" fill="#000000"></path>
                    <path d="M21.9714577,70.2759031 C5.41015197,60.6370138 -0.264131462,39.284833 9.29727811,22.5872634 C18.8586877,5.88850367 40.0354392,0.167533092 56.5979254,9.80880262 C73.1592311,19.448882 78.8335145,40.8010628 69.2721049,57.4986324 C59.7083345,74.196202 38.5327634,79.9171726 21.9714577,70.2759031 Z" id="Fill-1" fill="#FFFFFF"></path>
                </g>
            </g>
            <path d="M50.2957254,22 L16.0399841,28.4162857 L16,54.1621865 L16.7142608,54.2703152 L17.6352574,54.0728563 L17.7076527,30.0995738 L17.2829735,29.9861815 L36.1242522,35.006269 L36.1242522,51.6116134 L37.1291547,51.8611063 L37.5111237,51.6714676 L37.5111237,35.3691542 L48.9620145,34.1941761 L48.9620145,56.6216249 L50.2957254,57 L50.8945776,56.8108124 L50.8945776,34.0228847 L60.3617135,33.1849251 L60.4091189,52.5948473 L61.5098923,53.0269108 L62,52.8918627 L62,31.8379037 L50.2957254,22 Z M50.8945776,25.312587 L50.8945776,24.0539934 L61.0370505,32.0073905 L59.9770184,32.1200308 L50.8945776,25.312587 Z M44.0857761,25.6302056 L48.9620145,24.8378135 L48.9620145,28.5662221 L44.0857761,25.6302056 Z M38.9949263,26.457638 L43.396051,25.7423947 L48.9620145,29.0936313 L48.9620145,31.2449255 L38.9949263,26.457638 Z M50.8945776,29.7297707 L50.8945776,25.8777435 L59.316524,32.1902618 L55.6314776,32.581871 L50.8945776,29.7297707 Z M34.1688194,27.2419091 L38.215237,26.5844147 L48.9620145,31.7461673 L48.9620145,33.0555918 L34.1688194,27.2419091 Z M29.9423221,27.9287292 L33.2955311,27.383875 L48.4605477,33.343584 L45.0987057,33.7007545 L29.9423221,27.9287292 Z M25.5106035,28.6490856 L29.0529795,28.0732516 L44.1065254,33.8061762 L41.2482706,34.1098087 L25.5106035,28.6490856 Z M20.5765094,29.4508018 L24.572644,28.8014283 L40.1938424,34.2218474 L37.243806,34.5352551 L20.5765094,29.4508018 Z M50.8945776,32.173268 L50.8945776,30.2570295 L54.8867744,32.6608245 L52.4491095,32.9197919 L50.8945776,32.173268 Z M50.8945776,32.6743593 L51.5946016,33.010626 L50.8945776,33.0849174 L50.8945776,32.6743593 Z" id="Page-1" fill="#000000"></path>
        </g>
    </g>
</svg>