<?xml version="1.0" encoding="iso-8859-1"?>
<!-- Generator: Adobe Illustrator 19.1.0, SVG Export Plug-In . SVG Version: 6.00 Build 0)  -->
<svg xmlns="http://www.w3.org/2000/svg" xmlns:xlink="http://www.w3.org/1999/xlink" version="1.1" id="Capa_1" x="0px" y="0px" viewBox="0 0 63 63" style="enable-background:new 0 0 63 63;" xml:space="preserve" width="512px" height="512px">
<g>
	<g id="group-2svg">
		<path id="path-1_10_" d="M61.5,58.158h-60c-0.532,0-1.023-0.28-1.292-0.737c-0.27-0.458-0.278-1.023-0.021-1.488L27.039,7.329    c0.02-0.037,0.043-0.074,0.066-0.109c0.998-1.489,2.66-2.379,4.447-2.379c1.748,0,3.371,0.864,4.341,2.313    c0.025,0.036,0.047,0.072,0.068,0.11l26.852,48.67c0.256,0.465,0.248,1.03-0.021,1.487C62.521,57.878,62.03,58.158,61.5,58.158z     M4.042,55.158h54.917L33.369,8.777c-0.42-0.596-1.079-0.936-1.817-0.936c-0.765,0-1.48,0.374-1.923,1.002L4.042,55.158z" fill="#cb1313"/>
		<path id="path-2_10_" d="M29.461,40.152c0.086,0.882,0.233,1.539,0.447,2.006c0.299,0.647,0.874,1.003,1.62,1.003    c0.73,0,1.307-0.357,1.625-1.008c0.239-0.489,0.388-1.139,0.455-1.983l0.548-6.292c0.063-0.606,0.094-1.201,0.094-1.788    c0-1.076-0.144-1.897-0.444-2.514c-0.26-0.532-0.842-1.168-2.124-1.168c-0.813,0-1.485,0.279-1.994,0.825    c-0.5,0.533-0.754,1.257-0.754,2.153c0,0.53,0.038,1.402,0.116,2.619L29.461,40.152z" fill="#cb1313"/>
		<path id="path-3_4_" d="M29.705,44.714c-0.504,0.502-0.771,1.146-0.771,1.863c0,0.811,0.288,1.489,0.834,1.964    c0.523,0.452,1.141,0.681,1.837,0.681c0.692,0,1.307-0.233,1.826-0.695c0.536-0.477,0.819-1.151,0.819-1.95    c0-0.721-0.272-1.368-0.786-1.868C32.426,43.692,30.72,43.696,29.705,44.714z" fill="#cb1313"/>
	</g>
</g>
<g>
</g>
<g>
</g>
<g>
</g>
<g>
</g>
<g>
</g>
<g>
</g>
<g>
</g>
<g>
</g>
<g>
</g>
<g>
</g>
<g>
</g>
<g>
</g>
<g>
</g>
<g>
</g>
<g>
</g>
</svg>
